<?xml version="1.0" encoding="UTF-8"?>
<svg xmlns="http://www.w3.org/2000/svg" style="stroke-dasharray:none; shape-rendering:auto; font-family:'Arial'; text-rendering:auto; fill-opacity:1; color-interpolation:auto; color-rendering:auto; font-size:12; fill:black; stroke:black; image-rendering:auto; stroke-miterlimit:10; stroke-linecap:square; stroke-linejoin:miter; font-style:normal; stroke-width:1; stroke-dashoffset:0; font-weight:normal; stroke-opacity:1;" contentScriptType="text/ecmascript" preserveAspectRatio="xMidYMid meet" zoomAndPan="magnify" version="1.0" contentStyleType="text/css" xml:xlink="http://www.w3.org/1999/xlink" width="881" height="549"><rect x="425" y="440" width="456" height="109" ry="0" rx="0" style="stroke:#000000; fill:#FF9B9B" /><g componentSequence="1"><text x="-494" y="432" transform="rotate(270)" text-anchor="middle" style="font-weight:bold;font-size:10px;stroke:none; fill:#434343"><tspan dy="14" x="-494">Reprovado</tspan></text></g><rect x="0" y="440" width="426" height="109" ry="0" rx="0" style="stroke:#000000; fill:#A7FCC0" /><g componentSequence="3"><text x="-494" y="7" transform="rotate(270)" text-anchor="middle" style="font-weight:bold;font-size:10px;stroke:none; fill:#434343"><tspan dy="14" x="-494">Aprovado</tspan></text></g><rect x="0" y="0" width="881" height="441" ry="0" rx="0" style="stroke:#000000; fill:#8CC6FF" /><g componentSequence="2"><text x="-220" y="7" transform="rotate(270)" text-anchor="middle" style="font-weight:bold;font-size:10px;stroke:none; fill:#434343"><tspan dy="14" x="-220">Processamento</tspan></text></g><g sequence="2"><ellipse cx="29" cy="17" rx="17" ry="17" stroke-width="1" style="fill:url(#linearGradient66FF6696FF96B6FFB6_940742237);" stroke="336633" /></g><g sequence="8"><ellipse cx="237" cy="495" rx="17" ry="17" stroke-width="3" style="fill:url(#linearGradientFF6666FF9696FFB6B6_919961391);" stroke="993333" /></g><g sequence="12"><rect x="720" y="50" width="106" height="84" ry="5" rx="5" style="fill:url(#linearGradientF8FBFEEDF5FCDEEDFAD4E7F8E2E5E9_854261037);" stroke="191970" /></g><g componentSequence="12"><text x="773" y="65" text-anchor="middle" style="font-weight:bold;font-size:10px;stroke:none; fill:#333399"><tspan dy="14" x="773">Solicitante -</tspan><tspan dy="14" x="773">Tratar</tspan><tspan dy="14" x="773">Solicitação</tspan></text></g><g sequence="16"><ellipse cx="827" cy="495" rx="17" ry="17" stroke-width="3" style="fill:url(#linearGradientFF6666FF9696FFB6B6_2011723028);" stroke="993333" /></g><g sequence="36"><rect x="60" y="190" width="106" height="84" ry="5" rx="5" style="fill:url(#linearGradientF8FBFEEDF5FCDEEDFAD4E7F8E2E5E9_1533322698);" stroke="191970" /></g><g componentSequence="36"><text x="113" y="205" text-anchor="middle" style="font-weight:bold;font-size:10px;stroke:none; fill:#333399"><tspan dy="14" x="113">Aprovado -</tspan><tspan dy="14" x="113">Encaminhar</tspan><tspan dy="14" x="113">Fiscal</tspan></text></g><g sequence="55"><rect x="480" y="51" width="106" height="98" ry="5" rx="5" style="fill:url(#linearGradientF8FBFEEDF5FCDEEDFAD4E7F8E2E5E9_1188398478);" stroke="191970" /></g><g componentSequence="55"><text x="533" y="66" text-anchor="middle" style="font-weight:bold;font-size:10px;stroke:none; fill:#333399"><tspan dy="14" x="533">Gestor Centro</tspan><tspan dy="14" x="533">de Custo -</tspan><tspan dy="14" x="533">Direcionar</tspan><tspan dy="14" x="533">Solicitação</tspan></text></g><g sequence="105"><rect x="100" y="60" width="106" height="84" ry="5" rx="5" style="fill:url(#linearGradientF8FBFEEDF5FCDEEDFAD4E7F8E2E5E9_598936556);" stroke="191970" /></g><g componentSequence="105"><text x="153" y="75" text-anchor="middle" style="font-weight:bold;font-size:10px;stroke:none; fill:#333399"><tspan dy="14" x="153">Solicitante -</tspan><tspan dy="14" x="153">Anexar</tspan><tspan dy="14" x="153">Documento</tspan></text></g><rect x="80" y="460" width="105" height="55" ry="5" rx="5" style="stroke:none; fill:#FFFFE0" /><g componentSequence="26"><text x="90" y="473" text-anchor="left" style="font-weight:bold;font-size:10px;stroke:none; fill:#000000"><tspan dy="14" x="90">Aprovado</tspan></text></g><path style="fill:none; stroke-width:1; stroke:#000000;" d="M100.0 460.0 L80.0 460.0 L80.0 515.0 L100.0 515.0" /><rect x="640" y="450" width="105" height="69" ry="5" rx="5" style="stroke:none; fill:#FFFFE0" /><g componentSequence="30"><text x="650" y="473" text-anchor="left" style="font-weight:bold;font-size:10px;stroke:none; fill:#000000"><tspan dy="14" x="650">Reprova e</tspan><tspan dy="14" x="650">Cancela</tspan><tspan dy="14" x="650">Movimento</tspan></text></g><path style="fill:none; stroke-width:1; stroke:#000000;" d="M660.0 450.0 L640.0 450.0 L640.0 519.0 L660.0 519.0" /><rect x="210" y="30" width="105" height="69" ry="5" rx="5" style="stroke:none; fill:#FFFFE0" /><g componentSequence="79"><text x="220" y="53" text-anchor="left" style="font-weight:bold;font-size:10px;stroke:none; fill:#000000"><tspan dy="14" x="220">Usuário do</tspan><tspan dy="14" x="220">movimento do</tspan><tspan dy="14" x="220">RM</tspan></text></g><path style="fill:none; stroke-width:1; stroke:#000000;" d="M230.0 30.0 L210.0 30.0 L210.0 99.0 L230.0 99.0" /><g sequence="116"><rect x="480" y="183" width="106" height="84" ry="5" rx="5" style="fill:url(#linearGradientF8FBFEEDF5FCDEEDFAD4E7F8E2E5E9_398953051);" stroke="191970" /></g><g componentSequence="116"><text x="533" y="198" text-anchor="middle" style="font-weight:bold;font-size:10px;stroke:none; fill:#333399"><tspan dy="14" x="533">Ponto Focal -</tspan><tspan dy="14" x="533">Analisar</tspan><tspan dy="14" x="533">documento</tspan></text></g><g sequence="118"><rect x="320" y="180" width="106" height="98" ry="5" rx="5" style="fill:url(#linearGradientF8FBFEEDF5FCDEEDFAD4E7F8E2E5E9_1777543068);" stroke="191970" /></g><g componentSequence="118"><text x="373" y="195" text-anchor="middle" style="font-weight:bold;font-size:10px;stroke:none; fill:#333399"><tspan dy="14" x="373">Gestor Centro</tspan><tspan dy="14" x="373">de Custo -</tspan><tspan dy="14" x="373">Validar</tspan><tspan dy="14" x="373">Solicitação</tspan></text></g><rect x="620" y="224" width="105" height="97" ry="5" rx="5" style="stroke:none; fill:#FFFFE0" /><g componentSequence="122"><text x="630" y="247" text-anchor="left" style="font-weight:bold;font-size:10px;stroke:none; fill:#000000"><tspan dy="14" x="630">Complementar</tspan><tspan dy="14" x="630">anexando</tspan><tspan dy="14" x="630">documentos</tspan><tspan dy="14" x="630">e/ou rateio.</tspan></text></g><path style="fill:none; stroke-width:1; stroke:#000000;" d="M640.0 224.0 L620.0 224.0 L620.0 321.0 L640.0 321.0" /><g sequence="124"><rect x="60" y="350" width="106" height="84" ry="5" rx="5" style="fill:url(#linearGradientF8FBFEEDF5FCDEEDFAD4E7F8E2E5E9_56637145);" stroke="191970" /></g><g componentSequence="124"><text x="113" y="365" text-anchor="middle" style="font-weight:bold;font-size:10px;stroke:none; fill:#333399"><tspan dy="14" x="113">Aprovado -</tspan><tspan dy="14" x="113">Encaminhar</tspan><tspan dy="14" x="113">Financeiro</tspan></text></g><g componentSequence="50"><text x="663" y="22" style="font-size:10px;font-weight:none;stroke:none; fill:#333399" text-anchor="left" /></g><g componentSequence="57"><text x="83" y="47" style="font-size:10px;font-weight:none;stroke:none; fill:#333399" text-anchor="left" /></g><g componentSequence="58"><text x="353" y="101" style="font-size:10px;font-weight:none;stroke:none; fill:#333399" text-anchor="left" /></g><g componentSequence="59"><text x="349" y="23" style="font-size:10px;font-weight:none;stroke:none; fill:#333399" text-anchor="left" /></g><g componentSequence="113"><text x="870" y="284" style="font-size:10px;font-weight:none;stroke:none; fill:#333399" text-anchor="left" /></g><g componentSequence="27"><text x="212" y="493" style="font-size:10px;font-weight:none;stroke:none; fill:#333399" text-anchor="left" /></g><g componentSequence="31"><text x="787" y="491" style="font-size:10px;font-weight:none;stroke:none; fill:#333399" text-anchor="left" /></g><g componentSequence="80"><text x="218" y="83" style="font-size:10px;font-weight:none;stroke:none; fill:#333399" text-anchor="left" /></g><g componentSequence="117"><text x="543" y="166" style="font-size:10px;font-weight:none;stroke:none; fill:#333399" text-anchor="left" /></g><g componentSequence="119"><text x="463" y="227" style="font-size:10px;font-weight:none;stroke:none; fill:#333399" text-anchor="left" /></g><g componentSequence="120"><text x="253" y="230" style="font-size:10px;font-weight:none;stroke:none; fill:#333399" text-anchor="left" /></g><g componentSequence="121"><text x="656" y="361" style="font-size:10px;font-weight:none;stroke:none; fill:#333399" text-anchor="left" /></g><g componentSequence="123"><text x="613" y="249" style="font-size:10px;font-weight:none;stroke:none; fill:#333399" text-anchor="left" /></g><g componentSequence="125"><text x="123" y="312" style="font-size:10px;font-weight:none;stroke:none; fill:#333399" text-anchor="left" /></g><g componentSequence="126"><text x="579" y="357" style="font-size:10px;font-weight:none;stroke:none; fill:#333399" text-anchor="left" /></g><g componentSequence="127"><text x="202" y="457" style="font-size:10px;font-weight:none;stroke:none; fill:#333399" text-anchor="left" /></g><g componentSequence="128"><text x="581" y="392" style="font-size:10px;font-weight:none;stroke:none; fill:#333399" text-anchor="left" /></g><path style="fill:none; stroke:#000000;stroke-width:1" d="M43.0 27.0 L99.0 65.0" /><polygon style="fill:#000000; stroke:#000000;" points=" 94 55 99 65 88 64 92 61" /><path style="fill:none; stroke:#000000;stroke-dasharray:2" d="M185.0 491.0 L220.0 494.0" /><path style="fill:none; stroke:#000000;stroke-width:1" d="M164.0 434.0 L224.0 484.0" /><polygon style="fill:#000000; stroke:#000000;" points=" 220 474 224 484 213 481 218 479" /><path style="fill:none; stroke:#000000;stroke-width:1" d="M774.0 49.0 L775.0 22.0 L532.0 22.0 L532.0 50.0" /><polygon style="fill:#000000; stroke:#000000;" points=" 537 40 532 50 527 40 532 42" /><path style="fill:none; stroke:#000000;stroke-width:1" d="M826.0 92.0 L860.0 92.0 L860.0 495.0 L845.0 495.0" /><polygon style="fill:#000000; stroke:#000000;" points=" 855 500 845 495 855 490 853 495" /><path style="fill:none; stroke:#000000;stroke-width:1" d="M373.0 278.0 L375.0 361.0 L773.0 361.0 L773.0 134.0" /><polygon style="fill:#000000; stroke:#000000;" points=" 768 144 773 134 778 144 773 142" /><path style="fill:none; stroke:#000000;stroke-width:1" d="M166.0 256.0 L384.0 357.0 L772.0 357.0 L772.0 134.0" /><polygon style="fill:#000000; stroke:#000000;" points=" 767 144 772 134 777 144 772 142" /><path style="fill:none; stroke:#000000;stroke-dasharray:2" d="M745.0 488.0 L810.0 494.0" /><path style="fill:none; stroke:#000000;stroke-width:1" d="M166.0 392.0 L859.0 392.0 L859.0 495.0 L845.0 495.0" /><polygon style="fill:#000000; stroke:#000000;" points=" 855 500 845 495 855 490 853 495" /><path style="fill:none; stroke:#000000;stroke-width:1" d="M113.0 274.0 L113.0 349.0" /><polygon style="fill:#000000; stroke:#000000;" points=" 118 339 113 349 108 339 113 341" /><path style="fill:none; stroke:#000000;stroke-width:1" d="M319.0 229.0 L166.0 231.0" /><polygon style="fill:#000000; stroke:#000000;" points=" 176 236 166 231 176 226 174 231" /><path style="fill:none; stroke:#000000;stroke-width:1" d="M533.0 149.0 L533.0 182.0" /><polygon style="fill:#000000; stroke:#000000;" points=" 538 172 533 182 528 172 533 174" /><path style="fill:none; stroke:#009600;stroke-width:1" d="M206.0 101.0 L479.0 100.0" /><polygon style="fill:#009600; stroke:#009600;" points=" 469 95 479 100 469 105 471 100" /><path style="fill:none; stroke:#000000;stroke-width:1" d="M156.0 59.0 L159.0 23.0 L244.0 23.0 L529.0 23.0 L530.0 50.0" /><polygon style="fill:#000000; stroke:#000000;" points=" 535 40 530 50 525 40 530 42" /><path style="fill:none; stroke:#000000;stroke-dasharray:2" d="M209.0 82.0 L206.0 83.0" /><path style="fill:none; stroke:#000000;stroke-width:1" d="M479.0 226.0 L426.0 227.0" /><polygon style="fill:#000000; stroke:#000000;" points=" 436 232 426 227 436 222 434 227" /><path style="fill:none; stroke:#000000;stroke-dasharray:2" d="M619.0 254.0 L586.0 243.0" /><defs><linearGradient xmlns:xlink="http://www.w3.org/1999/xlink" xlink:href="#linearGradient66FF6696FF96B6FFB6" id="linearGradient66FF6696FF96B6FFB6_940742237" x1="0" y1="0.0" x2="0" y2="35.0" gradientUnits="userSpaceOnUse" xlink:type="simple" xlink:actuate="onLoad" xlink:show="other" /><linearGradient id="linearGradient66FF6696FF96B6FFB6"><stop style="stop-color:#66FF66;stop-opacity:1;" offset="0.0" id="stop66FF66" /><stop style="stop-color:#96FF96;stop-opacity:1;" offset="0.5" id="stop96FF96" /><stop style="stop-color:#B6FFB6;stop-opacity:1;" offset="1.0" id="stopB6FFB6" /></linearGradient><linearGradient xmlns:xlink="http://www.w3.org/1999/xlink" xlink:href="#linearGradientFF6666FF9696FFB6B6" id="linearGradientFF6666FF9696FFB6B6_919961391" x1="0" y1="478.0" x2="0" y2="513.0" gradientUnits="userSpaceOnUse" xlink:type="simple" xlink:actuate="onLoad" xlink:show="other" /><linearGradient id="linearGradientFF6666FF9696FFB6B6"><stop style="stop-color:#FF6666;stop-opacity:1;" offset="0.0" id="stopFF6666" /><stop style="stop-color:#FF9696;stop-opacity:1;" offset="0.5" id="stopFF9696" /><stop style="stop-color:#FFB6B6;stop-opacity:1;" offset="1.0" id="stopFFB6B6" /></linearGradient><linearGradient xmlns:xlink="http://www.w3.org/1999/xlink" xlink:href="#linearGradientF8FBFEEDF5FCDEEDFAD4E7F8E2E5E9" id="linearGradientF8FBFEEDF5FCDEEDFAD4E7F8E2E5E9_854261037" x1="0" y1="50.0" x2="0" y2="156.0" gradientUnits="userSpaceOnUse" xlink:type="simple" xlink:actuate="onLoad" xlink:show="other" /><linearGradient id="linearGradientF8FBFEEDF5FCDEEDFAD4E7F8E2E5E9"><stop style="stop-color:#F8FBFE;stop-opacity:1;" offset="0.0" id="stopF8FBFE" /><stop style="stop-color:#EDF5FC;stop-opacity:1;" offset="0.25" id="stopEDF5FC" /><stop style="stop-color:#DEEDFA;stop-opacity:1;" offset="0.5" id="stopDEEDFA" /><stop style="stop-color:#D4E7F8;stop-opacity:1;" offset="0.75" id="stopD4E7F8" /><stop style="stop-color:#E2E5E9;stop-opacity:1;" offset="1.0" id="stopE2E5E9" /></linearGradient><linearGradient xmlns:xlink="http://www.w3.org/1999/xlink" xlink:href="#linearGradientFF6666FF9696FFB6B6" id="linearGradientFF6666FF9696FFB6B6_2011723028" x1="0" y1="478.0" x2="0" y2="513.0" gradientUnits="userSpaceOnUse" xlink:type="simple" xlink:actuate="onLoad" xlink:show="other" /><linearGradient xmlns:xlink="http://www.w3.org/1999/xlink" xlink:href="#linearGradientF8FBFEEDF5FCDEEDFAD4E7F8E2E5E9" id="linearGradientF8FBFEEDF5FCDEEDFAD4E7F8E2E5E9_1533322698" x1="0" y1="190.0" x2="0" y2="296.0" gradientUnits="userSpaceOnUse" xlink:type="simple" xlink:actuate="onLoad" xlink:show="other" /><linearGradient xmlns:xlink="http://www.w3.org/1999/xlink" xlink:href="#linearGradientF8FBFEEDF5FCDEEDFAD4E7F8E2E5E9" id="linearGradientF8FBFEEDF5FCDEEDFAD4E7F8E2E5E9_1188398478" x1="0" y1="51.0" x2="0" y2="157.0" gradientUnits="userSpaceOnUse" xlink:type="simple" xlink:actuate="onLoad" xlink:show="other" /><linearGradient xmlns:xlink="http://www.w3.org/1999/xlink" xlink:href="#linearGradientF8FBFEEDF5FCDEEDFAD4E7F8E2E5E9" id="linearGradientF8FBFEEDF5FCDEEDFAD4E7F8E2E5E9_598936556" x1="0" y1="60.0" x2="0" y2="166.0" gradientUnits="userSpaceOnUse" xlink:type="simple" xlink:actuate="onLoad" xlink:show="other" /><linearGradient xmlns:xlink="http://www.w3.org/1999/xlink" xlink:href="#linearGradientF8FBFEEDF5FCDEEDFAD4E7F8E2E5E9" id="linearGradientF8FBFEEDF5FCDEEDFAD4E7F8E2E5E9_398953051" x1="0" y1="183.0" x2="0" y2="289.0" gradientUnits="userSpaceOnUse" xlink:type="simple" xlink:actuate="onLoad" xlink:show="other" /><linearGradient xmlns:xlink="http://www.w3.org/1999/xlink" xlink:href="#linearGradientF8FBFEEDF5FCDEEDFAD4E7F8E2E5E9" id="linearGradientF8FBFEEDF5FCDEEDFAD4E7F8E2E5E9_1777543068" x1="0" y1="180.0" x2="0" y2="286.0" gradientUnits="userSpaceOnUse" xlink:type="simple" xlink:actuate="onLoad" xlink:show="other" /><linearGradient xmlns:xlink="http://www.w3.org/1999/xlink" xlink:href="#linearGradientF8FBFEEDF5FCDEEDFAD4E7F8E2E5E9" id="linearGradientF8FBFEEDF5FCDEEDFAD4E7F8E2E5E9_56637145" x1="0" y1="350.0" x2="0" y2="456.0" gradientUnits="userSpaceOnUse" xlink:type="simple" xlink:actuate="onLoad" xlink:show="other" /></defs></svg>
