<?xml version="1.0" encoding="UTF-8"?>
<svg xmlns="http://www.w3.org/2000/svg" style="stroke-dasharray:none; shape-rendering:auto; font-family:'Arial'; text-rendering:auto; fill-opacity:1; color-interpolation:auto; color-rendering:auto; font-size:12; fill:black; stroke:black; image-rendering:auto; stroke-miterlimit:10; stroke-linecap:square; stroke-linejoin:miter; font-style:normal; stroke-width:1; stroke-dashoffset:0; font-weight:normal; stroke-opacity:1;" contentScriptType="text/ecmascript" preserveAspectRatio="xMidYMid meet" zoomAndPan="magnify" version="1.0" contentStyleType="text/css" xml:xlink="http://www.w3.org/1999/xlink" width="533" height="483"><rect x="247" y="366" width="285" height="117" ry="0" rx="0" style="stroke:#000000; fill:#82B0B7" /><g componentSequence="4"><text x="-424" y="254" transform="rotate(270)" text-anchor="middle" style="font-weight:bold;font-size:10px;stroke:none; fill:#434343"><tspan dy="14" x="-424">Reprovar</tspan></text></g><rect x="2" y="110" width="531" height="132" ry="0" rx="0" style="stroke:#000000; fill:#FFFFFF" /><g componentSequence="1"><text x="-176" y="9" transform="rotate(270)" text-anchor="middle" style="font-weight:bold;font-size:10px;stroke:none; fill:#434343"><tspan dy="14" x="-176">Gestor CC</tspan></text></g><rect x="2" y="366" width="248" height="117" ry="0" rx="0" style="stroke:#000000; fill:#A7FCC0" /><g componentSequence="2"><text x="-424" y="9" transform="rotate(270)" text-anchor="middle" style="font-weight:bold;font-size:10px;stroke:none; fill:#434343"><tspan dy="14" x="-424">Aprovar</tspan></text></g><rect x="2" y="241" width="531" height="126" ry="0" rx="0" style="stroke:#000000; fill:#FFFFFF" /><g componentSequence="5"><text x="-304" y="9" transform="rotate(270)" text-anchor="middle" style="font-weight:bold;font-size:10px;stroke:none; fill:#434343"><tspan dy="14" x="-304">GEF - Analise Fiscal</tspan></text></g><rect x="2" y="0" width="531" height="111" ry="0" rx="0" style="stroke:#000000; fill:#FFFFFF" /><g componentSequence="3"><text x="-55" y="9" transform="rotate(270)" text-anchor="middle" style="font-weight:bold;font-size:10px;stroke:none; fill:#434343"><tspan dy="14" x="-55">Solicitação</tspan></text></g><g sequence="2"><ellipse cx="217" cy="38" rx="17" ry="17" stroke-width="1" style="fill:url(#linearGradient66FF6696FF96B6FFB6_1387654235);" stroke="336633" /></g><g sequence="8"><ellipse cx="187" cy="425" rx="17" ry="17" stroke-width="3" style="fill:url(#linearGradientFF6666FF9696FFB6B6_1550981245);" stroke="993333" /></g><g sequence="116"><rect x="360" y="15" width="106" height="70" ry="5" rx="5" style="fill:url(#linearGradientF8FBFEEDF5FCDEEDFAD4E7F8E2E5E9_1481475883);" stroke="191970" /></g><g componentSequence="116"><text x="413" y="30" text-anchor="middle" style="font-weight:bold;font-size:10px;stroke:none; fill:#333399"><tspan dy="14" x="413">Processamento</tspan><tspan dy="14" x="413">da solicitação</tspan></text></g><g sequence="134"><ellipse cx="437" cy="425" rx="17" ry="17" stroke-width="3" style="fill:url(#linearGradientFF6666FF9696FFB6B6_491721286);" stroke="993333" /></g><g sequence="134"><polygon points=" 428 421 433 416 438 421 443 416 448 421 443 426 448 431 443 436 438 431 433 436 428 431 433 426" style="stroke:none; fill:#993333" /></g><g sequence="145"><rect x="90" y="120" width="106" height="98" ry="5" rx="5" style="fill:url(#linearGradientF8FBFEEDF5FCDEEDFAD4E7F8E2E5E9_1617289856);" stroke="191970" /></g><g componentSequence="145"><text x="143" y="135" text-anchor="middle" style="font-weight:bold;font-size:10px;stroke:none; fill:#333399"><tspan dy="14" x="143">Gestor Centro</tspan><tspan dy="14" x="143">de Custos -</tspan><tspan dy="14" x="143">Aprovar</tspan><tspan dy="14" x="143">solicitação</tspan></text></g><rect x="40" y="400" width="105" height="69" ry="5" rx="5" style="stroke:none; fill:#FFFFE0" /><g componentSequence="26"><text x="50" y="423" text-anchor="left" style="font-weight:bold;font-size:10px;stroke:none; fill:#000000"><tspan dy="14" x="50">Aprovado -</tspan><tspan dy="14" x="50">Libera</tspan><tspan dy="14" x="50">Movimento</tspan></text></g><path style="fill:none; stroke-width:1; stroke:#000000;" d="M60.0 400.0 L40.0 400.0 L40.0 469.0 L60.0 469.0" /><rect x="290" y="400" width="105" height="77" ry="5" rx="5" style="stroke:none; fill:#FFFFE0" /><g componentSequence="30"><text x="300" y="423" text-anchor="left" style="font-weight:bold;font-size:10px;stroke:none; fill:#000000"><tspan dy="14" x="300">Reprovado -</tspan><tspan dy="14" x="300">Cancela</tspan><tspan dy="14" x="300">Movimento</tspan></text></g><path style="fill:none; stroke-width:1; stroke:#000000;" d="M310.0 400.0 L290.0 400.0 L290.0 477.0 L310.0 477.0" /><rect x="70" y="0" width="105" height="93" ry="5" rx="5" style="stroke:none; fill:#FFFFE0" /><g componentSequence="130"><text x="80" y="23" text-anchor="left" style="font-weight:bold;font-size:10px;stroke:none; fill:#000000"><tspan dy="14" x="80">Solicitações</tspan><tspan dy="14" x="80">provenientes</tspan><tspan dy="14" x="80">do Sistema RM</tspan></text></g><path style="fill:none; stroke-width:1; stroke:#000000;" d="M90.0 0.0 L70.0 0.0 L70.0 93.0 L90.0 93.0" /><g sequence="157"><rect x="260" y="271" width="106" height="70" ry="5" rx="5" style="fill:url(#linearGradientF8FBFEEDF5FCDEEDFAD4E7F8E2E5E9_748203777);" stroke="191970" /></g><g componentSequence="157"><text x="313" y="286" text-anchor="middle" style="font-weight:bold;font-size:10px;stroke:none; fill:#333399"><tspan dy="14" x="313">Aprovado -</tspan><tspan dy="14" x="313">Analisar Fiscal</tspan></text></g><g componentSequence="105"><text x="307" y="43" style="font-size:10px;font-weight:none;stroke:none; fill:#333399" text-anchor="left" /></g><g componentSequence="146"><text x="297" y="139" style="font-size:10px;font-weight:none;stroke:none; fill:#333399" text-anchor="left" /></g><g componentSequence="156"><text x="288" y="109" style="font-size:10px;font-weight:none;stroke:none; fill:#333399" text-anchor="left" /></g><g componentSequence="27"><text x="167" y="428" style="font-size:10px;font-weight:none;stroke:none; fill:#333399" text-anchor="left" /></g><g componentSequence="31"><text x="417" y="430" style="font-size:10px;font-weight:none;stroke:none; fill:#333399" text-anchor="left" /></g><g componentSequence="131"><text x="197" y="41" style="font-size:10px;font-weight:none;stroke:none; fill:#333399" text-anchor="left" /></g><g componentSequence="158"><text x="242" y="241" style="font-size:10px;font-weight:none;stroke:none; fill:#333399" text-anchor="left" /></g><g componentSequence="159"><text x="250" y="375" style="font-size:10px;font-weight:none;stroke:none; fill:#333399" text-anchor="left" /></g><g componentSequence="160"><text x="423" y="219" style="font-size:10px;font-weight:none;stroke:none; fill:#333399" text-anchor="left" /></g><g componentSequence="161"><text x="508" y="246" style="font-size:10px;font-weight:none;stroke:none; fill:#333399" text-anchor="left" /></g><g componentSequence="162"><text x="227" y="220" style="font-size:10px;font-weight:none;stroke:none; fill:#333399" text-anchor="left"><tspan dy="14" x="227">Reprovando parcela de</tspan><tspan dy="14" x="227">contrato</tspan></text></g><path style="fill:none; stroke:#000000;stroke-width:1" d="M234.0 39.0 L359.0 46.0" /><polygon style="fill:#000000; stroke:#000000;" points=" 349 40 359 46 349 50 351 46" /><path style="fill:none; stroke:#000000;stroke-dasharray:2" d="M175.0 42.0 L200.0 39.0" /><path style="fill:none; stroke:#000000;stroke-dasharray:2" d="M145.0 429.0 L170.0 426.0" /><path style="fill:none; stroke:#000000;stroke-width:1" d="M275.0 341.0 L200.0 413.0" /><polygon style="fill:#000000; stroke:#000000;" points=" 211 410 200 413 204 402 206 407" /><path style="fill:none; stroke:#000000;stroke-width:1" d="M363.0 85.0 L288.0 139.0 L196.0 158.0" /><polygon style="fill:#000000; stroke:#000000;" points=" 207 161 196 158 205 151 204 156" /><path style="fill:none; stroke:#009600;stroke-width:1" d="M359.0 73.0 L196.0 145.0" /><polygon style="fill:#009600; stroke:#009600;" points=" 207 146 196 145 203 136 203 142" /><path style="fill:none; stroke:#000000;stroke-width:1" d="M466.0 54.0 L498.0 56.0 L498.0 425.0 L455.0 425.0" /><polygon style="fill:#000000; stroke:#000000;" points=" 465 430 455 425 465 420 463 425" /><path style="fill:none; stroke:#000000;stroke-width:1" d="M366.0 306.0 L413.0 306.0 L413.0 85.0" /><polygon style="fill:#000000; stroke:#000000;" points=" 408 95 413 85 418 95 413 93" /><path style="fill:none; stroke:#000000;stroke-width:1" d="M144.0 218.0 L144.0 233.0 L412.0 233.0 L412.0 85.0" /><polygon style="fill:#000000; stroke:#000000;" points=" 407 95 412 85 417 95 412 93" /><path style="fill:none; stroke:#000000;stroke-dasharray:2" d="M395.0 431.0 L420.0 427.0" /><path style="fill:none; stroke:#000000;stroke-width:1" d="M196.0 212.0 L268.0 270.0" /><polygon style="fill:#000000; stroke:#000000;" points=" 263 260 268 270 257 268 262 265" /><defs><linearGradient xmlns:xlink="http://www.w3.org/1999/xlink" xlink:href="#linearGradient66FF6696FF96B6FFB6" id="linearGradient66FF6696FF96B6FFB6_1387654235" x1="0" y1="21.0" x2="0" y2="56.0" gradientUnits="userSpaceOnUse" xlink:type="simple" xlink:actuate="onLoad" xlink:show="other" /><linearGradient id="linearGradient66FF6696FF96B6FFB6"><stop style="stop-color:#66FF66;stop-opacity:1;" offset="0.0" id="stop66FF66" /><stop style="stop-color:#96FF96;stop-opacity:1;" offset="0.5" id="stop96FF96" /><stop style="stop-color:#B6FFB6;stop-opacity:1;" offset="1.0" id="stopB6FFB6" /></linearGradient><linearGradient xmlns:xlink="http://www.w3.org/1999/xlink" xlink:href="#linearGradientFF6666FF9696FFB6B6" id="linearGradientFF6666FF9696FFB6B6_1550981245" x1="0" y1="408.0" x2="0" y2="443.0" gradientUnits="userSpaceOnUse" xlink:type="simple" xlink:actuate="onLoad" xlink:show="other" /><linearGradient id="linearGradientFF6666FF9696FFB6B6"><stop style="stop-color:#FF6666;stop-opacity:1;" offset="0.0" id="stopFF6666" /><stop style="stop-color:#FF9696;stop-opacity:1;" offset="0.5" id="stopFF9696" /><stop style="stop-color:#FFB6B6;stop-opacity:1;" offset="1.0" id="stopFFB6B6" /></linearGradient><linearGradient xmlns:xlink="http://www.w3.org/1999/xlink" xlink:href="#linearGradientF8FBFEEDF5FCDEEDFAD4E7F8E2E5E9" id="linearGradientF8FBFEEDF5FCDEEDFAD4E7F8E2E5E9_1481475883" x1="0" y1="15.0" x2="0" y2="121.0" gradientUnits="userSpaceOnUse" xlink:type="simple" xlink:actuate="onLoad" xlink:show="other" /><linearGradient id="linearGradientF8FBFEEDF5FCDEEDFAD4E7F8E2E5E9"><stop style="stop-color:#F8FBFE;stop-opacity:1;" offset="0.0" id="stopF8FBFE" /><stop style="stop-color:#EDF5FC;stop-opacity:1;" offset="0.25" id="stopEDF5FC" /><stop style="stop-color:#DEEDFA;stop-opacity:1;" offset="0.5" id="stopDEEDFA" /><stop style="stop-color:#D4E7F8;stop-opacity:1;" offset="0.75" id="stopD4E7F8" /><stop style="stop-color:#E2E5E9;stop-opacity:1;" offset="1.0" id="stopE2E5E9" /></linearGradient><linearGradient xmlns:xlink="http://www.w3.org/1999/xlink" xlink:href="#linearGradientFF6666FF9696FFB6B6" id="linearGradientFF6666FF9696FFB6B6_491721286" x1="0" y1="408.0" x2="0" y2="443.0" gradientUnits="userSpaceOnUse" xlink:type="simple" xlink:actuate="onLoad" xlink:show="other" /><linearGradient xmlns:xlink="http://www.w3.org/1999/xlink" xlink:href="#linearGradientF8FBFEEDF5FCDEEDFAD4E7F8E2E5E9" id="linearGradientF8FBFEEDF5FCDEEDFAD4E7F8E2E5E9_1617289856" x1="0" y1="120.0" x2="0" y2="226.0" gradientUnits="userSpaceOnUse" xlink:type="simple" xlink:actuate="onLoad" xlink:show="other" /><linearGradient xmlns:xlink="http://www.w3.org/1999/xlink" xlink:href="#linearGradientF8FBFEEDF5FCDEEDFAD4E7F8E2E5E9" id="linearGradientF8FBFEEDF5FCDEEDFAD4E7F8E2E5E9_748203777" x1="0" y1="271.0" x2="0" y2="377.0" gradientUnits="userSpaceOnUse" xlink:type="simple" xlink:actuate="onLoad" xlink:show="other" /></defs></svg>
