<?xml version="1.0" encoding="UTF-8"?>
<svg xmlns="http://www.w3.org/2000/svg" style="stroke-dasharray:none; shape-rendering:auto; font-family:'Arial'; text-rendering:auto; fill-opacity:1; color-interpolation:auto; color-rendering:auto; font-size:12; fill:black; stroke:black; image-rendering:auto; stroke-miterlimit:10; stroke-linecap:square; stroke-linejoin:miter; font-style:normal; stroke-width:1; stroke-dashoffset:0; font-weight:normal; stroke-opacity:1;" contentScriptType="text/ecmascript" preserveAspectRatio="xMidYMid meet" zoomAndPan="magnify" version="1.0" contentStyleType="text/css" xml:xlink="http://www.w3.org/1999/xlink" width="823" height="717"><rect x="247" y="567" width="285" height="117" ry="0" rx="0" style="stroke:#000000; fill:#82B0B7" /><g componentSequence="4"><text x="-625" y="255" transform="rotate(270)" text-anchor="middle" style="font-weight:bold;font-size:10px;stroke:none; fill:#434343"><tspan dy="14" x="-625">Reprovar</tspan></text></g><rect x="2" y="110" width="531" height="151" ry="0" rx="0" style="stroke:#000000; fill:#FFFFFF" /><g componentSequence="1"><text x="-185" y="120" transform="rotate(270)" text-anchor="middle" style="font-weight:bold;font-size:10px;stroke:none; fill:#434343"><tspan dy="14" x="-185">Gestor Centro de</tspan><tspan dy="14" x="-185">Custo</tspan></text></g><rect x="0" y="567" width="248" height="117" ry="0" rx="0" style="stroke:#000000; fill:#A7FCC0" /><g componentSequence="2"><text x="-625" y="8" transform="rotate(270)" text-anchor="middle" style="font-weight:bold;font-size:10px;stroke:none; fill:#434343"><tspan dy="14" x="-625">Aprovar</tspan></text></g><rect x="2" y="255" width="531" height="313" ry="0" rx="0" style="stroke:#000000; fill:#FFFFFF" /><g componentSequence="5"><text x="-411" y="10" transform="rotate(270)" text-anchor="middle" style="font-weight:bold;font-size:10px;stroke:none; fill:#434343"><tspan dy="14" x="-411">Autorizadores</tspan></text></g><rect x="2" y="0" width="531" height="111" ry="0" rx="0" style="stroke:#000000; fill:#FFFFFF" /><g componentSequence="3"><text x="-55" y="10" transform="rotate(270)" text-anchor="middle" style="font-weight:bold;font-size:10px;stroke:none; fill:#434343"><tspan dy="14" x="-55">Solicitação</tspan></text></g><g sequence="2"><ellipse cx="299" cy="37" rx="17" ry="17" stroke-width="1" style="fill:url(#linearGradient66FF6696FF96B6FFB6_757881516);" stroke="336633" /></g><g sequence="8"><ellipse cx="148" cy="626" rx="17" ry="17" stroke-width="3" style="fill:url(#linearGradientFF6666FF9696FFB6B6_602644857);" stroke="993333" /></g><g sequence="116"><rect x="71" y="10" width="106" height="92" ry="5" rx="5" style="fill:url(#linearGradientF8FBFEEDF5FCDEEDFAD4E7F8E2E5E9_668217820);" stroke="191970" /></g><g componentSequence="116"><text x="124" y="25" text-anchor="middle" style="font-weight:bold;font-size:10px;stroke:none; fill:#333399"><tspan dy="14" x="124">Solicitante -</tspan><tspan dy="14" x="124">Anexar</tspan><tspan dy="14" x="124">documentos</tspan></text></g><g sequence="123"><rect x="61" y="320" width="106" height="92" ry="5" rx="5" style="fill:url(#linearGradientF8FBFEEDF5FCDEEDFAD4E7F8E2E5E9_1658235714);" stroke="191970" /></g><g componentSequence="123"><text x="114" y="335" text-anchor="middle" style="font-weight:bold;font-size:10px;stroke:none; fill:#333399"><tspan dy="14" x="114">Autorizadores</tspan><tspan dy="14" x="114">- Aprovar</tspan><tspan dy="14" x="114">solicitação</tspan></text></g><g sequence="134"><ellipse cx="418" cy="626" rx="17" ry="17" stroke-width="3" style="fill:url(#linearGradientFF6666FF9696FFB6B6_761296014);" stroke="993333" /></g><g sequence="134"><polygon points=" 409 622 414 617 419 622 424 617 429 622 424 627 429 632 424 637 419 632 414 637 409 632 414 627" style="stroke:none; fill:#993333" /></g><g sequence="135"><rect x="221" y="290" width="106" height="92" ry="5" rx="5" style="fill:url(#linearGradientF8FBFEEDF5FCDEEDFAD4E7F8E2E5E9_1400825906);" stroke="191970" /></g><g componentSequence="135"><text x="274" y="305" text-anchor="middle" style="font-weight:bold;font-size:10px;stroke:none; fill:#333399"><tspan dy="14" x="274">Presidência -</tspan><tspan dy="14" x="274">Aprovar</tspan><tspan dy="14" x="274">solicitação</tspan></text></g><g sequence="140"><rect x="331" y="460" width="106" height="76" ry="5" rx="5" style="fill:url(#linearGradientF8FBFEEDF5FCDEEDFAD4E7F8E2E5E9_1428318544);" stroke="191970" /></g><g componentSequence="140"><text x="384" y="475" text-anchor="middle" style="font-weight:bold;font-size:10px;stroke:none; fill:#333399"><tspan dy="14" x="384">Escalar Outro</tspan><tspan dy="14" x="384">Aprovador</tspan></text></g><g sequence="145"><rect x="71" y="150" width="106" height="124" ry="5" rx="5" style="fill:url(#linearGradientF8FBFEEDF5FCDEEDFAD4E7F8E2E5E9_49894413);" stroke="191970" /></g><g componentSequence="145"><text x="124" y="165" text-anchor="middle" style="font-weight:bold;font-size:10px;stroke:none; fill:#333399"><tspan dy="14" x="124">Gestor Centro</tspan><tspan dy="14" x="124">de Custos -</tspan><tspan dy="14" x="124">Aprovar</tspan><tspan dy="14" x="124">solicitação</tspan></text></g><g sequence="147"><polygon points=" 261 170 291 140 321 170 291 200 261 170" style="fill:url(#linearGradientFAFBFCFFFFCC_747869400);" stroke="000000" /></g><g componentSequence="147"><text x="291" y="210" text-anchor="middle" style="font-weight:bold;font-size:10px;stroke:none; fill:#333399"><tspan dy="14" x="291">Aprova</tspan><tspan dy="14" x="291">do</tspan></text></g><g sequence="149"><rect x="382" y="300" width="106" height="92" ry="5" rx="5" style="fill:url(#linearGradientF8FBFEEDF5FCDEEDFAD4E7F8E2E5E9_134792704);" stroke="191970" /></g><g componentSequence="149"><text x="435" y="315" text-anchor="middle" style="font-weight:bold;font-size:10px;stroke:none; fill:#333399"><tspan dy="14" x="435">VPF - Aprovar</tspan><tspan dy="14" x="435">Solicitação</tspan></text></g><rect x="31" y="650" width="105" height="55" ry="5" rx="5" style="stroke:none; fill:#FFFFE0" /><g componentSequence="26"><text x="41" y="663" text-anchor="left" style="font-weight:bold;font-size:10px;stroke:none; fill:#000000"><tspan dy="14" x="41">Aprovado</tspan></text></g><path style="fill:none; stroke-width:1; stroke:#000000;" d="M51.0 650.0 L31.0 650.0 L31.0 705.0 L51.0 705.0" /><rect x="291" y="640" width="105" height="77" ry="5" rx="5" style="stroke:none; fill:#FFFFE0" /><g componentSequence="30"><text x="301" y="663" text-anchor="left" style="font-weight:bold;font-size:10px;stroke:none; fill:#000000"><tspan dy="14" x="301">Reprovado -</tspan><tspan dy="14" x="301">Cancela</tspan><tspan dy="14" x="301">Movimento</tspan></text></g><path style="fill:none; stroke-width:1; stroke:#000000;" d="M311.0 640.0 L291.0 640.0 L291.0 717.0 L311.0 717.0" /><rect x="382" y="10" width="105" height="93" ry="5" rx="5" style="stroke:none; fill:#FFFFE0" /><g componentSequence="130"><text x="392" y="33" text-anchor="left" style="font-weight:bold;font-size:10px;stroke:none; fill:#000000"><tspan dy="14" x="392">Solicitações</tspan><tspan dy="14" x="392">provenientes</tspan><tspan dy="14" x="392">do Sistema</tspan><tspan dy="14" x="392">RM</tspan></text></g><path style="fill:none; stroke-width:1; stroke:#000000;" d="M402.0 10.0 L382.0 10.0 L382.0 103.0 L402.0 103.0" /><rect x="21" y="260" width="105" height="61" ry="5" rx="5" style="stroke:none; fill:#FFFFE0" /><g componentSequence="132"><text x="31" y="283" text-anchor="left" style="font-weight:bold;font-size:10px;stroke:none; fill:#000000"><tspan dy="14" x="31">Pres, SG,</tspan><tspan dy="14" x="31">VPF e CG</tspan></text></g><path style="fill:none; stroke-width:1; stroke:#000000;" d="M41.0 260.0 L21.0 260.0 L21.0 321.0 L41.0 321.0" /><rect x="451" y="200" width="105" height="61" ry="5" rx="5" style="stroke:none; fill:#FFFFE0" /><g componentSequence="158"><text x="461" y="223" text-anchor="left" style="font-weight:bold;font-size:10px;stroke:none; fill:#000000"><tspan dy="14" x="461">Grupo</tspan><tspan dy="14" x="461">w_VPF</tspan></text></g><path style="fill:none; stroke-width:1; stroke:#000000;" d="M471.0 200.0 L451.0 200.0 L451.0 261.0 L471.0 261.0" /><rect x="311" y="220" width="105" height="61" ry="5" rx="5" style="stroke:none; fill:#FFFFE0" /><g componentSequence="160"><text x="321" y="243" text-anchor="left" style="font-weight:bold;font-size:10px;stroke:none; fill:#000000"><tspan dy="14" x="321">Grupo</tspan><tspan dy="14" x="321">w_PRES</tspan></text></g><path style="fill:none; stroke-width:1; stroke:#000000;" d="M331.0 220.0 L311.0 220.0 L311.0 281.0 L331.0 281.0" /><g componentSequence="105"><text x="239" y="45" style="font-size:10px;font-weight:none;stroke:none; fill:#333399" text-anchor="left" /></g><g componentSequence="126"><text x="143" y="510" style="font-size:10px;font-weight:none;stroke:none; fill:#333399" text-anchor="left" /></g><g componentSequence="137"><text x="215" y="495" style="font-size:10px;font-weight:none;stroke:none; fill:#333399" text-anchor="left" /></g><g componentSequence="138"><text x="683" y="432" style="font-size:10px;font-weight:none;stroke:none; fill:#333399" text-anchor="left"><tspan dy="14" x="683">Cancelar Solicitação</tspan></text></g><g componentSequence="142"><text x="684" y="560" style="font-size:10px;font-weight:none;stroke:none; fill:#333399" text-anchor="left"><tspan dy="14" x="684">Cancelar Solicitação</tspan></text></g><g componentSequence="143"><text x="258" y="572" style="font-size:10px;font-weight:none;stroke:none; fill:#333399" text-anchor="left" /></g><g componentSequence="146"><text x="134" y="126" style="font-size:10px;font-weight:none;stroke:none; fill:#333399" text-anchor="left" /></g><g componentSequence="148"><text x="229" y="202" style="font-size:10px;font-weight:none;stroke:none; fill:#333399" text-anchor="left" /></g><g componentSequence="150"><text x="438" y="197" style="font-size:10px;font-weight:none;stroke:none; fill:#333399" text-anchor="left" /></g><g componentSequence="152"><text x="364" y="341" style="font-size:10px;font-weight:none;stroke:none; fill:#333399" text-anchor="left" /></g><g componentSequence="153"><text x="221" y="271" style="font-size:10px;font-weight:none;stroke:none; fill:#333399" text-anchor="left" /></g><g componentSequence="154"><text x="287" y="500" style="font-size:10px;font-weight:none;stroke:none; fill:#333399" text-anchor="left" /></g><g componentSequence="155"><text x="187" y="502" style="font-size:10px;font-weight:none;stroke:none; fill:#333399" text-anchor="left" /></g><g componentSequence="156"><text x="306" y="87" style="font-size:10px;font-weight:none;stroke:none; fill:#333399" text-anchor="left" /></g><g componentSequence="157"><text x="297" y="441" style="font-size:10px;font-weight:none;stroke:none; fill:#333399" text-anchor="left" /></g><g componentSequence="162"><text x="653" y="421" style="font-size:10px;font-weight:none;stroke:none; fill:#333399" text-anchor="left" /></g><g componentSequence="163"><text x="686" y="506" style="font-size:10px;font-weight:none;stroke:none; fill:#333399" text-anchor="left" /></g><g componentSequence="27"><text x="135" y="645" style="font-size:10px;font-weight:none;stroke:none; fill:#333399" text-anchor="left" /></g><g componentSequence="31"><text x="408" y="640" style="font-size:10px;font-weight:none;stroke:none; fill:#333399" text-anchor="left" /></g><g componentSequence="131"><text x="359" y="45" style="font-size:10px;font-weight:none;stroke:none; fill:#333399" text-anchor="left" /></g><g componentSequence="133"><text x="100" y="320" style="font-size:10px;font-weight:none;stroke:none; fill:#333399" text-anchor="left" /></g><g componentSequence="159"><text x="484" y="280" style="font-size:10px;font-weight:none;stroke:none; fill:#333399" text-anchor="left" /></g><g componentSequence="161"><text x="337" y="285" style="font-size:10px;font-weight:none;stroke:none; fill:#333399" text-anchor="left" /></g><path style="fill:none; stroke:#000000;stroke-width:1" d="M282.0 38.0 L177.0 50.0" /><polygon style="fill:#000000; stroke:#000000;" points=" 188 54 177 50 186 44 185 49" /><path style="fill:none; stroke:#000000;stroke-dasharray:2" d="M381.0 49.0 L316.0 39.0" /><path style="fill:none; stroke:#000000;stroke-width:1" d="M120.0 412.0 L146.0 609.0" /><polygon style="fill:#000000; stroke:#000000;" points=" 150 598 146 609 140 600 145 601" /><polygon style="fill:#000000; stroke:#000000;" points=" 126 416 117 428" /><path style="fill:none; stroke:#000000;stroke-width:1" d="M253.0 382.0 L155.0 610.0" /><polygon style="fill:#000000; stroke:#000000;" points=" 164 603 155 610 154 599 158 603" /><polygon style="fill:#000000; stroke:#000000;" points=" 256 389 242 394" /><path style="fill:none; stroke:#000000;stroke-width:1" d="M330.0 527.0 L163.0 618.0" /><polygon style="fill:#000000; stroke:#000000;" points=" 174 618 163 618 169 609 170 614" /><polygon style="fill:#000000; stroke:#000000;" points=" 328 534 314 530" /><path style="fill:none; stroke:#000000;stroke-width:1" d="M387.0 392.0 L160.0 614.0" /><polygon style="fill:#000000; stroke:#000000;" points=" 171 611 160 614 164 603 166 608" /><polygon style="fill:#000000; stroke:#000000;" points=" 387 399 373 399" /><path style="fill:none; stroke:#000000;stroke-dasharray:2" d="M119.0 649.0 L134.0 637.0" /><path style="fill:none; stroke:#000000;stroke-width:1" d="M124.0 102.0 L124.0 149.0" /><polygon style="fill:#000000; stroke:#000000;" points=" 129 139 124 149 119 139 124 141" /><path style="fill:none; stroke:#009600;stroke-width:1" d="M177.0 62.0 L308.0 78.0 L177.0 173.0" /><polygon style="fill:#009600; stroke:#009600;" points=" 188 171 177 173 182 163 183 168" /><path style="fill:none; stroke:#F00000;stroke-width:1" d="M114.0 412.0 L114.0 503.0 L330.0 499.0" /><polygon style="fill:#F00000; stroke:#F00000;" points=" 320 494 330 499 320 504 322 499" /><polygon style="fill:#F00000; stroke:#F00000;" points=" 109 422 114 412 119 422 114 420" /><path style="fill:none; stroke:#000000;stroke-width:1" d="M167.0 393.0 L222.0 421.0 L678.0 421.0 L678.0 626.0 L436.0 626.0" /><polygon style="fill:#000000; stroke:#000000;" points=" 446 631 436 626 446 621 444 626" /><path style="fill:none; stroke:#000000;stroke-width:1" d="M260.0 223.0 L162.0 319.0" /><polygon style="fill:#000000; stroke:#000000;" points=" 173 316 162 319 166 308 168 313" /><path style="fill:none; stroke:#000000;stroke-dasharray:2" d="M90.0 321.0 L89.0 319.0" /><path style="fill:none; stroke:#000000;stroke-width:1" d="M284.0 382.0 L293.0 418.0 L673.0 418.0 L673.0 607.0 L673.0 626.0 L436.0 626.0" /><polygon style="fill:#000000; stroke:#000000;" points=" 446 631 436 626 446 621 444 626" /><path style="fill:none; stroke:#000000;stroke-width:1" d="M437.0 497.0 L674.0 494.0 L674.0 626.0 L436.0 626.0" /><polygon style="fill:#000000; stroke:#000000;" points=" 446 631 436 626 446 621 444 626" /><path style="fill:none; stroke:#000000;stroke-width:1" d="M168.0 274.0 L408.0 612.0" /><polygon style="fill:#000000; stroke:#000000;" points=" 406 601 408 612 398 607 403 605" /><path style="fill:none; stroke:#000000;stroke-width:1" d="M488.0 343.0 L676.0 335.0 L676.0 626.0 L436.0 626.0" /><polygon style="fill:#000000; stroke:#000000;" points=" 446 631 436 626 446 621 444 626" /><path style="fill:none; stroke:#000000;stroke-dasharray:2" d="M396.0 641.0 L404.0 636.0" /><path style="fill:none; stroke:#000000;stroke-width:1" d="M381.0 342.0 L327.0 339.0" /><polygon style="fill:#000000; stroke:#000000;" points=" 337 345 327 339 337 335 335 339" /><path style="fill:none; stroke:#000000;stroke-dasharray:2" d="M331.0 281.0 L322.0 289.0" /><path style="fill:none; stroke:#000000;stroke-width:1" d="M177.0 206.0 L260.0 197.0" /><polygon style="fill:#000000; stroke:#000000;" points=" 250 193 260 197 251 203 252 198" /><polygon style="fill:#000000; stroke:#000000;" points=" 181 200 192 209" /><path style="fill:none; stroke:#000000;stroke-width:1" d="M321.0 194.0 L434.0 197.0 L434.0 299.0" /><polygon style="fill:#000000; stroke:#000000;" points=" 439 289 434 299 429 289 434 291" /><path style="fill:none; stroke:#000000;stroke-dasharray:2" d="M485.0 261.0 L462.0 299.0" /><defs><linearGradient xmlns:xlink="http://www.w3.org/1999/xlink" xlink:href="#linearGradient66FF6696FF96B6FFB6" id="linearGradient66FF6696FF96B6FFB6_757881516" x1="0" y1="20.0" x2="0" y2="55.0" gradientUnits="userSpaceOnUse" xlink:type="simple" xlink:actuate="onLoad" xlink:show="other" /><linearGradient id="linearGradient66FF6696FF96B6FFB6"><stop style="stop-color:#66FF66;stop-opacity:1;" offset="0.0" id="stop66FF66" /><stop style="stop-color:#96FF96;stop-opacity:1;" offset="0.5" id="stop96FF96" /><stop style="stop-color:#B6FFB6;stop-opacity:1;" offset="1.0" id="stopB6FFB6" /></linearGradient><linearGradient xmlns:xlink="http://www.w3.org/1999/xlink" xlink:href="#linearGradientFF6666FF9696FFB6B6" id="linearGradientFF6666FF9696FFB6B6_602644857" x1="0" y1="609.0" x2="0" y2="644.0" gradientUnits="userSpaceOnUse" xlink:type="simple" xlink:actuate="onLoad" xlink:show="other" /><linearGradient id="linearGradientFF6666FF9696FFB6B6"><stop style="stop-color:#FF6666;stop-opacity:1;" offset="0.0" id="stopFF6666" /><stop style="stop-color:#FF9696;stop-opacity:1;" offset="0.5" id="stopFF9696" /><stop style="stop-color:#FFB6B6;stop-opacity:1;" offset="1.0" id="stopFFB6B6" /></linearGradient><linearGradient xmlns:xlink="http://www.w3.org/1999/xlink" xlink:href="#linearGradientF8FBFEEDF5FCDEEDFAD4E7F8E2E5E9" id="linearGradientF8FBFEEDF5FCDEEDFAD4E7F8E2E5E9_668217820" x1="0" y1="10.0" x2="0" y2="116.0" gradientUnits="userSpaceOnUse" xlink:type="simple" xlink:actuate="onLoad" xlink:show="other" /><linearGradient id="linearGradientF8FBFEEDF5FCDEEDFAD4E7F8E2E5E9"><stop style="stop-color:#F8FBFE;stop-opacity:1;" offset="0.0" id="stopF8FBFE" /><stop style="stop-color:#EDF5FC;stop-opacity:1;" offset="0.25" id="stopEDF5FC" /><stop style="stop-color:#DEEDFA;stop-opacity:1;" offset="0.5" id="stopDEEDFA" /><stop style="stop-color:#D4E7F8;stop-opacity:1;" offset="0.75" id="stopD4E7F8" /><stop style="stop-color:#E2E5E9;stop-opacity:1;" offset="1.0" id="stopE2E5E9" /></linearGradient><linearGradient xmlns:xlink="http://www.w3.org/1999/xlink" xlink:href="#linearGradientF8FBFEEDF5FCDEEDFAD4E7F8E2E5E9" id="linearGradientF8FBFEEDF5FCDEEDFAD4E7F8E2E5E9_1658235714" x1="0" y1="320.0" x2="0" y2="426.0" gradientUnits="userSpaceOnUse" xlink:type="simple" xlink:actuate="onLoad" xlink:show="other" /><linearGradient xmlns:xlink="http://www.w3.org/1999/xlink" xlink:href="#linearGradientFF6666FF9696FFB6B6" id="linearGradientFF6666FF9696FFB6B6_761296014" x1="0" y1="609.0" x2="0" y2="644.0" gradientUnits="userSpaceOnUse" xlink:type="simple" xlink:actuate="onLoad" xlink:show="other" /><linearGradient xmlns:xlink="http://www.w3.org/1999/xlink" xlink:href="#linearGradientF8FBFEEDF5FCDEEDFAD4E7F8E2E5E9" id="linearGradientF8FBFEEDF5FCDEEDFAD4E7F8E2E5E9_1400825906" x1="0" y1="290.0" x2="0" y2="396.0" gradientUnits="userSpaceOnUse" xlink:type="simple" xlink:actuate="onLoad" xlink:show="other" /><linearGradient xmlns:xlink="http://www.w3.org/1999/xlink" xlink:href="#linearGradientF8FBFEEDF5FCDEEDFAD4E7F8E2E5E9" id="linearGradientF8FBFEEDF5FCDEEDFAD4E7F8E2E5E9_1428318544" x1="0" y1="460.0" x2="0" y2="566.0" gradientUnits="userSpaceOnUse" xlink:type="simple" xlink:actuate="onLoad" xlink:show="other" /><linearGradient xmlns:xlink="http://www.w3.org/1999/xlink" xlink:href="#linearGradientF8FBFEEDF5FCDEEDFAD4E7F8E2E5E9" id="linearGradientF8FBFEEDF5FCDEEDFAD4E7F8E2E5E9_49894413" x1="0" y1="150.0" x2="0" y2="256.0" gradientUnits="userSpaceOnUse" xlink:type="simple" xlink:actuate="onLoad" xlink:show="other" /><linearGradient xmlns:xlink="http://www.w3.org/1999/xlink" xlink:href="#linearGradientFAFBFCFFFFCC" id="linearGradientFAFBFCFFFFCC_747869400" x1="0" y1="140.0" x2="0" y2="200.0" gradientUnits="userSpaceOnUse" xlink:type="simple" xlink:actuate="onLoad" xlink:show="other" /><linearGradient id="linearGradientFAFBFCFFFFCC"><stop style="stop-color:#FAFBFC;stop-opacity:1;" offset="0.0" id="stopFAFBFC" /><stop style="stop-color:#FFFFCC;stop-opacity:1;" offset="1.0" id="stopFFFFCC" /></linearGradient><linearGradient xmlns:xlink="http://www.w3.org/1999/xlink" xlink:href="#linearGradientF8FBFEEDF5FCDEEDFAD4E7F8E2E5E9" id="linearGradientF8FBFEEDF5FCDEEDFAD4E7F8E2E5E9_134792704" x1="0" y1="300.0" x2="0" y2="406.0" gradientUnits="userSpaceOnUse" xlink:type="simple" xlink:actuate="onLoad" xlink:show="other" /></defs></svg>
